# xmcd
#
# Track frame offsets:
#	150
#	17029
#	31112
#	46942
#	63152
#	76638
#	94400
#	111642
#	130656
#	148518
#	165739
#	178790
#	196043
#	209753
#	225820
#	245176
#	265427
#
# Disc length: 3640 seconds
#
# Revision: 1
# Processed by: cddbd v1.5.2PL0 Copyright (c) Steve Scherf et al.
# Submitted via: EZCDAudioConverter 2.0.6.1
#
DISCID=e70e3611
DTITLE=Varios - 35 Mega Sucessos Gauchos
DYEAR=2005
DGENRE=UnClassifiable
TTITLE0=Batendo água
TTITLE1=Recorrendo os aguapés
TTITLE2=Recanto da natureza
TTITLE3=A vitória do trigo
TTITLE4=O homem do pala branco
TTITLE5=Recuerdos da 28
TTITLE6=Pêlos
TTITLE7=Nova trilha
TTITLE8=Martim pescador
TTITLE9=Por quem cantam os cardeais
TTITLE10=Obrigado patrao velho
TTITLE11=Vento negro
TTITLE12=Nao va
TTITLE13=Redomona
TTITLE14=Pago Santo
TTITLE15=De ja hoje
TTITLE16=Parabens crioulo
EXTD=
EXTT0=
EXTT1=
EXTT2=
EXTT3=
EXTT4=
EXTT5=
EXTT6=
EXTT7=
EXTT8=
EXTT9=
EXTT10=
EXTT11=
EXTT12=
EXTT13=
EXTT14=
EXTT15=
EXTT16=
PLAYORDER=
